<svg width="128" height="128" viewBox="0 0 128 128" fill="none" xmlns="http://www.w3.org/2000/svg">
<path fill-rule="evenodd" clip-rule="evenodd" d="M36.1973 28.0338C41.6862 18.416 52.0252 12 64 12C75.9748 12 86.3138 18.416 91.8027 28.0338C92.5279 27.9975 93.2001 27.9987 93.7499 27.9997C93.8364 27.9998 93.9199 28 94 28C108.209 28 120 39.7909 120 54C120 66.7784 110.464 77.6011 98.209 79.6509L99.9938 111.778C100.055 112.876 99.6613 113.95 98.9058 114.749C98.1503 115.548 97.0994 116 96 116H32C30.9006 116 29.8497 115.548 29.0942 114.749C28.3387 113.95 27.9452 112.876 28.0062 111.778L29.791 79.651C17.536 77.6011 8 66.7784 8 54C8 39.7909 19.7909 28 34 28C34.0801 28 34.1636 27.9998 34.2501 27.9997C34.7999 27.9987 35.4721 27.9975 36.1973 28.0338ZM32.9807 36.0297C23.646 36.5751 16 44.5509 16 54C16 63.7909 24.2091 72 34 72C35.0994 72 36.1503 72.4525 36.9058 73.2511C37.6613 74.0498 38.0548 75.1242 37.9938 76.2219L36.2284 108H91.7716L90.0062 76.2219C89.9452 75.1242 90.3387 74.0498 91.0942 73.2511C91.8497 72.4525 92.9006 72 94 72C103.791 72 112 63.7909 112 54C112 44.5509 104.354 36.5751 95.0193 36.0297C95.66 38.5737 96 41.2435 96 44C96 46.2091 94.2091 48 92 48C89.7909 48 88 46.2091 88 44C88 30.6091 77.3909 20 64 20C50.6091 20 40 30.6091 40 44C40 46.2091 38.2091 48 36 48C33.7909 48 32 46.2091 32 44C32 41.2435 32.34 38.5737 32.9807 36.0297ZM50.7284 80.0669C52.9006 80.4691 54.3354 82.5562 53.9331 84.7284L51.9331 95.5284C51.5309 97.7006 49.4439 99.1354 47.2716 98.7331C45.0994 98.3309 43.6646 96.2439 44.0669 94.0716L46.0669 83.2716C46.4691 81.0994 48.5561 79.6646 50.7284 80.0669ZM77.2716 80.0669C79.4438 79.6646 81.5309 81.0994 81.9331 83.2716L83.9331 94.0716C84.3354 96.2439 82.9006 98.3309 80.7284 98.7331C78.5562 99.1354 76.4691 97.7006 76.0669 95.5284L74.0669 84.7284C73.6646 82.5562 75.0994 80.4691 77.2716 80.0669ZM64 80C66.2091 80 68 81.7909 68 84V96C68 98.2091 66.2091 100 64 100C61.7909 100 60 98.2091 60 96V84C60 81.7909 61.7909 80 64 80Z" fill="#663399"/>
</svg>
